<svg width="978" height="190" viewBox="0 0 978 190" fill="none" xmlns="http://www.w3.org/2000/svg">
<g clip-path="url(#clip0_0_1)">
<path d="M113.383 62.3271C122.503 62.3271 129.158 64.1157 133.347 67.6929C137.569 71.2378 139.68 76.3296 139.68 82.9683C139.68 85.9653 139.18 88.8174 138.181 91.5244C137.214 94.1992 135.635 96.5679 133.444 98.6304C131.252 100.661 128.368 102.272 124.791 103.464C121.246 104.625 116.896 105.205 111.739 105.205H103.135V133H94.917V62.3271H113.383ZM112.609 69.3364H103.135V98.147H110.821C115.333 98.147 119.087 97.6636 122.084 96.6968C125.113 95.73 127.385 94.167 128.9 92.0078C130.415 89.8164 131.172 86.916 131.172 83.3066C131.172 78.6016 129.673 75.105 126.676 72.8169C123.679 70.4966 118.99 69.3364 112.609 69.3364ZM177.336 79.0527C178.4 79.0527 179.512 79.1172 180.672 79.2461C181.832 79.3428 182.863 79.4878 183.766 79.6812L182.75 87.1255C181.88 86.8999 180.914 86.7227 179.85 86.5938C178.787 86.4648 177.788 86.4004 176.853 86.4004C174.726 86.4004 172.712 86.8354 170.811 87.7056C168.941 88.5435 167.298 89.7681 165.88 91.3794C164.462 92.9585 163.35 94.876 162.544 97.1318C161.739 99.3555 161.336 101.837 161.336 104.576V133H153.263V80.0195H159.934L160.804 89.7842H161.143C162.238 87.8184 163.56 86.0298 165.106 84.4185C166.653 82.7749 168.442 81.4697 170.472 80.5029C172.535 79.5361 174.823 79.0527 177.336 79.0527ZM214.171 79.0527C218.683 79.0527 222.55 80.0518 225.773 82.0498C228.996 84.0479 231.461 86.8516 233.169 90.4609C234.877 94.0381 235.731 98.2275 235.731 103.029V108.008H199.138C199.234 114.228 200.781 118.965 203.778 122.22C206.775 125.475 210.997 127.103 216.443 127.103C219.795 127.103 222.76 126.796 225.338 126.184C227.916 125.572 230.591 124.669 233.362 123.477V130.535C230.688 131.727 228.029 132.597 225.386 133.145C222.776 133.693 219.682 133.967 216.105 133.967C211.013 133.967 206.566 132.936 202.763 130.873C198.993 128.778 196.06 125.717 193.965 121.688C191.871 117.66 190.823 112.729 190.823 106.896C190.823 101.192 191.774 96.2617 193.675 92.1045C195.609 87.915 198.316 84.6924 201.796 82.4365C205.309 80.1807 209.434 79.0527 214.171 79.0527ZM214.075 85.627C209.789 85.627 206.373 87.0288 203.827 89.8325C201.281 92.6362 199.766 96.5518 199.283 101.579H227.32C227.288 98.4209 226.788 95.6494 225.821 93.2646C224.887 90.8477 223.453 88.9785 221.519 87.6572C219.585 86.3037 217.104 85.627 214.075 85.627ZM290.452 114.196C290.452 118.385 289.404 121.962 287.31 124.927C285.247 127.86 282.347 130.1 278.608 131.646C274.87 133.193 270.471 133.967 265.412 133.967C262.737 133.967 260.207 133.838 257.822 133.58C255.438 133.322 253.246 132.952 251.248 132.468C249.25 131.985 247.494 131.389 245.979 130.68V122.8C248.396 123.799 251.345 124.734 254.825 125.604C258.306 126.442 261.947 126.861 265.75 126.861C269.295 126.861 272.292 126.394 274.741 125.459C277.19 124.492 279.043 123.123 280.3 121.35C281.589 119.545 282.234 117.386 282.234 114.873C282.234 112.456 281.702 110.441 280.639 108.83C279.575 107.187 277.803 105.704 275.321 104.383C272.872 103.029 269.521 101.595 265.267 100.081C262.27 99.0171 259.627 97.8569 257.339 96.6001C255.051 95.311 253.133 93.8608 251.586 92.2495C250.04 90.6382 248.863 88.769 248.058 86.6421C247.284 84.5151 246.897 82.082 246.897 79.3428C246.897 75.5723 247.848 72.3496 249.75 69.6748C251.683 66.9678 254.342 64.9053 257.726 63.4873C261.142 62.0371 265.057 61.312 269.472 61.312C273.243 61.312 276.723 61.6665 279.914 62.3755C283.136 63.0845 286.085 64.0352 288.76 65.2275L286.198 72.2852C283.652 71.2217 280.945 70.3354 278.077 69.6265C275.241 68.9175 272.308 68.563 269.279 68.563C266.25 68.563 263.688 69.0142 261.593 69.9165C259.53 70.7866 257.951 72.0273 256.855 73.6387C255.76 75.25 255.212 77.1675 255.212 79.3911C255.212 81.8726 255.728 83.9351 256.759 85.5786C257.822 87.2222 259.498 88.6885 261.786 89.9775C264.106 91.2344 267.168 92.5557 270.971 93.9414C275.128 95.4561 278.657 97.0674 281.557 98.7754C284.458 100.451 286.665 102.514 288.18 104.963C289.694 107.38 290.452 110.458 290.452 114.196ZM366.2 97.5669C366.2 103.368 365.411 108.621 363.832 113.326C362.252 118.031 359.9 122.011 356.774 125.266C353.68 128.521 349.813 130.889 345.172 132.372L361.801 149.822H350.055L336.375 133.87C335.956 133.87 335.521 133.886 335.069 133.918C334.65 133.951 334.231 133.967 333.812 133.967C328.334 133.967 323.548 133.097 319.456 131.356C315.395 129.616 312.011 127.135 309.304 123.912C306.629 120.689 304.615 116.838 303.262 112.359C301.94 107.879 301.28 102.917 301.28 97.4702C301.28 90.2515 302.472 83.9189 304.857 78.4727C307.242 73.0264 310.851 68.7886 315.685 65.7593C320.551 62.73 326.642 61.2153 333.958 61.2153C340.951 61.2153 346.832 62.7139 351.602 65.7109C356.403 68.708 360.029 72.9297 362.478 78.376C364.959 83.79 366.2 90.187 366.2 97.5669ZM309.933 97.5669C309.933 103.561 310.787 108.75 312.495 113.132C314.203 117.515 316.813 120.899 320.326 123.284C323.871 125.668 328.366 126.861 333.812 126.861C339.291 126.861 343.771 125.668 347.251 123.284C350.764 120.899 353.358 117.515 355.034 113.132C356.709 108.75 357.547 103.561 357.547 97.5669C357.547 88.4468 355.63 81.3247 351.795 76.2007C347.992 71.0444 342.046 68.4663 333.958 68.4663C328.479 68.4663 323.967 69.6426 320.422 71.9951C316.877 74.3477 314.235 77.6992 312.495 82.0498C310.787 86.3682 309.933 91.5405 309.933 97.5669ZM407.676 133V62.3271H415.894V133H407.676ZM459.206 79.0527C465.49 79.0527 470.244 80.5996 473.466 83.6934C476.689 86.7549 478.3 91.6855 478.3 98.4854V133H470.373V99.0171C470.373 94.6021 469.357 91.2988 467.327 89.1074C465.329 86.916 462.251 85.8203 458.094 85.8203C452.229 85.8203 448.104 87.48 445.719 90.7993C443.334 94.1187 442.142 98.9365 442.142 105.253V133H434.118V80.0195H440.595L441.804 87.6572H442.239C443.367 85.7881 444.801 84.2251 446.541 82.9683C448.281 81.6792 450.231 80.7124 452.39 80.0679C454.549 79.3911 456.821 79.0527 459.206 79.0527ZM519.921 79.0527C526.205 79.0527 530.958 80.5996 534.181 83.6934C537.404 86.7549 539.015 91.6855 539.015 98.4854V133H531.087V99.0171C531.087 94.6021 530.072 91.2988 528.042 89.1074C526.044 86.916 522.966 85.8203 518.809 85.8203C512.944 85.8203 508.819 87.48 506.434 90.7993C504.049 94.1187 502.857 98.9365 502.857 105.253V133H494.833V80.0195H501.31L502.519 87.6572H502.954C504.082 85.7881 505.516 84.2251 507.256 82.9683C508.996 81.6792 510.946 80.7124 513.105 80.0679C515.264 79.3911 517.536 79.0527 519.921 79.0527ZM601.229 106.413C601.229 110.764 600.665 114.647 599.537 118.063C598.409 121.479 596.781 124.363 594.654 126.716C592.527 129.068 589.949 130.873 586.92 132.13C583.923 133.354 580.523 133.967 576.72 133.967C573.175 133.967 569.92 133.354 566.956 132.13C564.023 130.873 561.477 129.068 559.318 126.716C557.191 124.363 555.531 121.479 554.339 118.063C553.179 114.647 552.599 110.764 552.599 106.413C552.599 100.612 553.582 95.6816 555.547 91.6211C557.513 87.5283 560.317 84.4185 563.958 82.2915C567.632 80.1323 571.999 79.0527 577.059 79.0527C581.893 79.0527 586.114 80.1323 589.724 82.2915C593.365 84.4507 596.185 87.5767 598.183 91.6694C600.213 95.73 601.229 100.645 601.229 106.413ZM560.913 106.413C560.913 110.667 561.477 114.357 562.605 117.483C563.733 120.609 565.473 123.026 567.826 124.734C570.178 126.442 573.208 127.296 576.914 127.296C580.587 127.296 583.601 126.442 585.953 124.734C588.338 123.026 590.094 120.609 591.222 117.483C592.35 114.357 592.914 110.667 592.914 106.413C592.914 102.191 592.35 98.5498 591.222 95.4883C590.094 92.3945 588.354 90.0098 586.001 88.334C583.649 86.6582 580.604 85.8203 576.865 85.8203C571.354 85.8203 567.31 87.6411 564.732 91.2827C562.186 94.9243 560.913 99.9678 560.913 106.413ZM626.752 133L606.643 80.0195H615.247L626.897 112.069C627.703 114.26 628.524 116.677 629.362 119.32C630.2 121.962 630.78 124.089 631.103 125.701H631.441C631.828 124.089 632.472 121.962 633.375 119.32C634.277 116.645 635.099 114.228 635.84 112.069L647.49 80.0195H656.094L635.937 133H626.752ZM684.421 79.1494C690.738 79.1494 695.427 80.5674 698.488 83.4033C701.55 86.2393 703.081 90.7671 703.081 96.9868V133H697.231L695.685 125.169H695.298C693.815 127.103 692.269 128.73 690.657 130.051C689.046 131.34 687.177 132.323 685.05 133C682.955 133.645 680.377 133.967 677.315 133.967C674.093 133.967 671.225 133.403 668.711 132.275C666.229 131.147 664.264 129.439 662.813 127.151C661.396 124.863 660.687 121.962 660.687 118.45C660.687 113.165 662.781 109.104 666.971 106.268C671.16 103.432 677.541 101.885 686.113 101.627L695.25 101.241V98.002C695.25 93.4258 694.267 90.2192 692.301 88.3823C690.335 86.5454 687.563 85.627 683.986 85.627C681.215 85.627 678.572 86.0298 676.059 86.8354C673.545 87.6411 671.16 88.5918 668.904 89.6875L666.439 83.5967C668.824 82.3721 671.563 81.3247 674.657 80.4546C677.75 79.5845 681.005 79.1494 684.421 79.1494ZM695.153 106.896L687.08 107.235C680.474 107.493 675.817 108.572 673.11 110.474C670.403 112.375 669.049 115.066 669.049 118.546C669.049 121.576 669.968 123.815 671.805 125.266C673.642 126.716 676.075 127.441 679.104 127.441C683.809 127.441 687.66 126.136 690.657 123.525C693.654 120.915 695.153 117 695.153 111.779V106.896ZM736.725 127.393C738.046 127.393 739.4 127.28 740.786 127.054C742.171 126.829 743.299 126.555 744.169 126.232V132.468C743.235 132.887 741.93 133.242 740.254 133.532C738.61 133.822 736.999 133.967 735.42 133.967C732.616 133.967 730.07 133.483 727.782 132.517C725.494 131.518 723.657 129.842 722.271 127.489C720.918 125.137 720.241 121.882 720.241 117.725V86.3037H712.7V82.3882L720.29 79.2461L723.48 67.7412H728.314V80.0195H743.831V86.3037H728.314V117.483C728.314 120.802 729.071 123.284 730.586 124.927C732.133 126.571 734.179 127.393 736.725 127.393ZM762.925 80.0195V133H754.901V80.0195H762.925ZM759.01 60.2002C760.331 60.2002 761.459 60.6353 762.394 61.5054C763.36 62.3433 763.844 63.6646 763.844 65.4692C763.844 67.2417 763.36 68.563 762.394 69.4331C761.459 70.3032 760.331 70.7383 759.01 70.7383C757.624 70.7383 756.464 70.3032 755.529 69.4331C754.627 68.563 754.176 67.2417 754.176 65.4692C754.176 63.6646 754.627 62.3433 755.529 61.5054C756.464 60.6353 757.624 60.2002 759.01 60.2002ZM825.622 106.413C825.622 110.764 825.058 114.647 823.93 118.063C822.802 121.479 821.175 124.363 819.048 126.716C816.921 129.068 814.343 130.873 811.313 132.13C808.316 133.354 804.917 133.967 801.114 133.967C797.569 133.967 794.314 133.354 791.349 132.13C788.417 130.873 785.871 129.068 783.711 126.716C781.584 124.363 779.925 121.479 778.732 118.063C777.572 114.647 776.992 110.764 776.992 106.413C776.992 100.612 777.975 95.6816 779.941 91.6211C781.907 87.5283 784.71 84.4185 788.352 82.2915C792.026 80.1323 796.393 79.0527 801.452 79.0527C806.286 79.0527 810.508 80.1323 814.117 82.2915C817.759 84.4507 820.579 87.5767 822.577 91.6694C824.607 95.73 825.622 100.645 825.622 106.413ZM785.307 106.413C785.307 110.667 785.871 114.357 786.999 117.483C788.126 120.609 789.867 123.026 792.219 124.734C794.572 126.442 797.601 127.296 801.307 127.296C804.981 127.296 807.994 126.442 810.347 124.734C812.731 123.026 814.488 120.609 815.616 117.483C816.744 114.357 817.308 110.667 817.308 106.413C817.308 102.191 816.744 98.5498 815.616 95.4883C814.488 92.3945 812.748 90.0098 810.395 88.334C808.042 86.6582 804.997 85.8203 801.259 85.8203C795.748 85.8203 791.704 87.6411 789.125 91.2827C786.58 94.9243 785.307 99.9678 785.307 106.413ZM864.584 79.0527C870.868 79.0527 875.622 80.5996 878.844 83.6934C882.067 86.7549 883.678 91.6855 883.678 98.4854V133H875.75V99.0171C875.75 94.6021 874.735 91.2988 872.705 89.1074C870.707 86.916 867.629 85.8203 863.472 85.8203C857.607 85.8203 853.482 87.48 851.097 90.7993C848.712 94.1187 847.52 98.9365 847.52 105.253V133H839.496V80.0195H845.973L847.182 87.6572H847.617C848.745 85.7881 850.179 84.2251 851.919 82.9683C853.659 81.6792 855.609 80.7124 857.768 80.0679C859.927 79.3911 862.199 79.0527 864.584 79.0527Z" fill="black"/>
<path d="M967.08 2.08H10.08C5.66174 2.08 2.08002 5.66172 2.08002 10.08V179.08C2.08002 183.498 5.66174 187.08 10.08 187.08H967.08C971.498 187.08 975.08 183.498 975.08 179.08V10.08C975.08 5.66172 971.498 2.08 967.08 2.08Z" stroke="black" stroke-width="4.17" stroke-miterlimit="10"/>
</g>
<defs>
<clipPath id="clip0_0_1">
<rect width="977.17" height="189.17" fill="white"/>
</clipPath>
</defs>
</svg>
